REM DIRINDEX 1\2\6,1\2\7,1\2\8,1\2\9,1\3\10,1\3\11,1\4\12,1\4\13,1\4\14,1\5\15,1\5\16,1\5\17
REM DIRNAME folder01,folder02,folder03,folder04,folder05,folder06,folder07,folder08,folder09,folder10,folder11,folder12,folder13,folder14,folder15,folder16,folder17
TITLE ""
FILE "1400_3_sec03_0266_0283.mp3" MP3
  TRACK 01 AUDIO
    TITLE "0:"
    INDEX 01 00:00:00
  TRACK 02 AUDIO
    TITLE "17:cjc029_4960"
    INDEX 01 00:00:15
  TRACK 03 AUDIO
    TITLE "0:"
    INDEX 01 00:01:22
  TRACK 04 AUDIO
    TITLE "16:cjc029_4961"
    INDEX 01 00:01:28
  TRACK 05 AUDIO
    TITLE "0:"
    INDEX 01 00:02:38
  TRACK 06 AUDIO
    TITLE "17:cjc029_4962"
    INDEX 01 00:03:21
  TRACK 07 AUDIO
    TITLE "0:"
    INDEX 01 00:04:38
  TRACK 08 AUDIO
    TITLE "16:cjc029_4963"
    INDEX 01 00:04:48
  TRACK 09 AUDIO
    TITLE "0:"
    INDEX 01 00:05:52
  TRACK 10 AUDIO
    TITLE "17:cjc029_4964"
    INDEX 01 00:06:37
  TRACK 11 AUDIO
    TITLE "0:"
    INDEX 01 00:07:43
  TRACK 12 AUDIO
    TITLE "16:cjc029_4965"
    INDEX 01 00:07:49
  TRACK 13 AUDIO
    TITLE "0:"
    INDEX 01 00:08:64
  TRACK 14 AUDIO
    TITLE "17:cjc029_4966"
    INDEX 01 00:09:47
  TRACK 15 AUDIO
    TITLE "0:"
    INDEX 01 00:10:53
  TRACK 16 AUDIO
    TITLE "16:cjc029_4967"
    INDEX 01 00:10:57
  TRACK 17 AUDIO
    TITLE "0:"
    INDEX 01 00:11:58
  TRACK 18 AUDIO
    TITLE "17:cjc029_4968"
    INDEX 01 00:12:44
  TRACK 19 AUDIO
    TITLE "0:"
    INDEX 01 00:14:43
  TRACK 20 AUDIO
    TITLE "16:cjc029_4969"
    INDEX 01 00:14:49
  TRACK 21 AUDIO
    TITLE "0:"
    INDEX 01 00:15:56
  TRACK 22 AUDIO
    TITLE "17:cjc029_4970"
    INDEX 01 00:16:40
  TRACK 23 AUDIO
    TITLE "0:"
    INDEX 01 00:19:58
  TRACK 24 AUDIO
    TITLE "16:cjc029_4971"
    INDEX 01 00:19:65
  TRACK 25 AUDIO
    TITLE "0:"
    INDEX 01 00:21:02
  TRACK 26 AUDIO
    TITLE "17:cjc029_4972"
    INDEX 01 00:21:60
  TRACK 27 AUDIO
    TITLE "0:"
    INDEX 01 00:24:41
  TRACK 28 AUDIO
    TITLE "16:cjc029_4973"
    INDEX 01 00:24:47
  TRACK 29 AUDIO
    TITLE "0:"
    INDEX 01 00:25:58
  TRACK 30 AUDIO
    TITLE "17:cjc029_4974"
    INDEX 01 00:26:44
  TRACK 31 AUDIO
    TITLE "0:"
    INDEX 01 00:28:02
  TRACK 32 AUDIO
    TITLE "16:cjc029_4975"
    INDEX 01 00:28:04
  TRACK 33 AUDIO
    TITLE "0:"
    INDEX 01 00:29:11
  TRACK 34 AUDIO
    TITLE "17:cjc029_4976"
    INDEX 01 00:29:70
  TRACK 35 AUDIO
    TITLE "0:"
    INDEX 01 00:31:10
  TRACK 36 AUDIO
    TITLE "16:cjc029_4977"
    INDEX 01 00:31:18
  TRACK 37 AUDIO
    TITLE "0:"
    INDEX 01 00:32:19
  TRACK 38 AUDIO
    TITLE "17:cjc029_4978"
    INDEX 01 00:33:01
  TRACK 39 AUDIO
    TITLE "0:"
    INDEX 01 00:34:20
  TRACK 40 AUDIO
    TITLE "16:cjc029_4979"
    INDEX 01 00:34:22
  TRACK 41 AUDIO
    TITLE "0:"
    INDEX 01 00:35:37
  TRACK 42 AUDIO
    TITLE "17:cjc029_4980"
    INDEX 01 00:36:19
  TRACK 43 AUDIO
    TITLE "0:"
    INDEX 01 00:38:31
  TRACK 44 AUDIO
    TITLE "16:cjc029_4981"
    INDEX 01 00:38:35
  TRACK 45 AUDIO
    TITLE "0:"
    INDEX 01 00:39:43
  TRACK 46 AUDIO
    TITLE "17:cjc029_4982"
    INDEX 01 00:40:32
  TRACK 47 AUDIO
    TITLE "0:"
    INDEX 01 00:41:55
  TRACK 48 AUDIO
    TITLE "16:cjc029_4983"
    INDEX 01 00:41:61
  TRACK 49 AUDIO
    TITLE "0:"
    INDEX 01 00:42:59
  TRACK 50 AUDIO
    TITLE "17:cjc029_4984"
    INDEX 01 00:43:44
  TRACK 51 AUDIO
    TITLE "0:"
    INDEX 01 00:44:65
  TRACK 52 AUDIO
    TITLE "16:cjc029_4985"
    INDEX 01 00:44:69
  TRACK 53 AUDIO
    TITLE "0:"
    INDEX 01 00:45:73
  TRACK 54 AUDIO
    TITLE "17:cjc029_4986"
    INDEX 01 00:46:60
  TRACK 55 AUDIO
    TITLE "0:"
    INDEX 01 00:47:58
  TRACK 56 AUDIO
    TITLE "16:cjc029_4987"
    INDEX 01 00:47:66
  TRACK 57 AUDIO
    TITLE "0:"
    INDEX 01 00:48:65
  TRACK 58 AUDIO
    TITLE "17:cjc029_4988"
    INDEX 01 00:49:49
  TRACK 59 AUDIO
    TITLE "0:"
    INDEX 01 00:50:62
  TRACK 60 AUDIO
    TITLE "16:cjc029_4989"
    INDEX 01 00:50:66
  TRACK 61 AUDIO
    TITLE "0:"
    INDEX 01 00:51:73
  TRACK 62 AUDIO
    TITLE "17:cjc029_4990"
    INDEX 01 00:52:57
  TRACK 63 AUDIO
    TITLE "0:"
    INDEX 01 00:54:13
  TRACK 64 AUDIO
    TITLE "16:cjc029_4991"
    INDEX 01 00:54:21
  TRACK 65 AUDIO
    TITLE "0:"
    INDEX 01 00:55:10
  TRACK 66 AUDIO
    TITLE "17:cjc029_4992"
    INDEX 01 00:56:04
  TRACK 67 AUDIO
    TITLE "0:"
    INDEX 01 00:57:23
  TRACK 68 AUDIO
    TITLE "16:cjc029_4993"
    INDEX 01 00:57:29
  TRACK 69 AUDIO
    TITLE "0:"
    INDEX 01 00:58:26
  TRACK 70 AUDIO
    TITLE "17:cjc029_4994"
    INDEX 01 00:59:10
  TRACK 71 AUDIO
    TITLE "0:"
    INDEX 01 01:00:74
  TRACK 72 AUDIO
    TITLE "16:cjc029_4995"
    INDEX 01 01:01:01
  TRACK 73 AUDIO
    TITLE "0:"
    INDEX 01 01:02:08
